<svg width="90" height="42" viewBox="0 0 90 42" fill="none" xmlns="http://www.w3.org/2000/svg">
<g clip-path="url(#clip0_1195_523)">
<path d="M70.5536 0H19.4414V9.60566H70.5536V0Z" fill="white"/>
<path d="M70.5536 31.6855H19.4414V41.2943H70.5536V31.6855Z" fill="white"/>
<path d="M0.108426 25.5361C1.56444 25.8706 2.82838 26.01 4.29678 26.01C5.80235 26.01 9.28439 25.6817 9.28439 22.5872C9.28439 20.1184 7.12825 19.694 5.56382 19.3936C4.53841 19.1984 3.72986 19.0373 3.72986 18.3992C3.72986 17.5381 5.00929 17.5381 5.63817 17.5381C6.62639 17.5381 7.6518 17.7023 8.60905 18.0182V15.6238C7.50929 15.41 6.3228 15.2861 5.26952 15.2861C1.772 15.283 0 16.3951 0 18.5789C0 21.0694 2.14064 21.4999 3.70198 21.8252C4.73978 22.042 5.55452 22.2062 5.55452 22.866C5.55452 23.4266 4.83581 23.755 3.56877 23.755C2.40397 23.755 1.15551 23.5196 0.105328 23.1169V25.5361H0.108426Z" fill="white"/>
<path d="M49.0459 25.5361C50.5081 25.8706 51.7659 26.01 53.2405 26.01C54.7399 26.01 58.225 25.6817 58.225 22.5872C58.225 20.1184 56.0719 19.694 54.5013 19.3936C53.4759 19.1984 52.6674 19.0373 52.6674 18.3992C52.6674 17.5381 53.9561 17.5381 54.5726 17.5381C55.5577 17.5381 56.5831 17.7023 57.5404 18.0182V15.6238C56.4406 15.41 55.2603 15.2861 54.207 15.2861C50.7126 15.2861 48.9375 16.3982 48.9375 18.582C48.9375 21.0725 51.075 21.503 52.6395 21.8283C53.6742 22.0451 54.492 22.2093 54.492 22.8691C54.492 23.4297 53.7702 23.7581 52.5094 23.7581C51.3446 23.7581 50.0899 23.5227 49.0397 23.12V25.5361H49.0459Z" fill="white"/>
<path d="M21.3761 15.4688H17.7422V21.6547C17.7422 22.649 17.5626 23.569 16.2862 23.569C15.329 23.569 14.8674 22.9402 14.8674 21.6392V15.4688H11.1406V21.7941C11.1406 25.4616 14.3377 26.0099 16.2429 26.0099C19.7466 26.0099 21.3761 24.6036 21.3761 21.5772V15.4688Z" fill="white"/>
<path d="M29.7621 25.8333H34.5669V15.4688H31.4132V22.5746L28.6375 15.4688H23.7305V25.8333H26.881V18.4982L29.7621 25.8333Z" fill="white"/>
<path d="M85.1996 25.8333H90.0013V15.4688H86.8507V22.5746L84.075 15.4688H79.168V25.8333H82.3185V18.4982L85.1996 25.8333Z" fill="white"/>
<path d="M46.4184 15.6456C45.4116 15.4133 44.4977 15.2832 42.6297 15.2832C39.7858 15.2832 36.4648 16.6461 36.4648 20.4903C36.4648 24.5636 39.6495 26.0102 42.6297 26.0102C44.2591 26.0102 45.5169 25.8522 46.8459 25.4681C46.8459 25.3876 46.8459 20.7257 46.8459 20.7257H43.6922V23.4826L43.6953 23.5197L43.6613 23.529C43.6613 23.529 43.5869 23.5538 43.5869 23.5569C43.5869 23.5569 43.5869 23.5569 43.59 23.5569C43.3205 23.6622 42.9704 23.6622 42.6637 23.6622C41.152 23.6622 40.2876 22.5997 40.2876 20.7505C40.2876 18.7928 41.5981 17.625 43.7976 17.625C44.761 17.625 45.7275 17.8232 46.4184 18.1547V15.6456Z" fill="white"/>
<path d="M70.5933 25.8333V15.4688H66.8666V19.1549H63.8244V15.4688H60.0977V25.8333H63.8244V21.9923H66.8666V25.8333H70.5933Z" fill="white"/>
<path d="M76.7815 15.4688H73.0547V25.8333H76.7815V15.4688Z" fill="white"/>
</g>
<defs>
<clipPath id="clip0_1195_523">
<rect width="90" height="41.2941" fill="white"/>
</clipPath>
</defs>
</svg>
